<svg width="122" height="22" viewBox="0 0 122 22" fill="none" xmlns="http://www.w3.org/2000/svg">
<path d="M9.71191 1.94629L2.3291 22H0.454102L8.51074 0.671875H9.81445L9.71191 1.94629ZM16.4209 22L9.02344 1.94629L8.9209 0.671875H10.2246L18.2959 22H16.4209ZM15.1025 14.4707V16.0234H3.7793V14.4707H15.1025ZM27.29 22H22.4561L22.4854 20.4619H27.29C28.8232 20.4619 30.1416 20.1201 31.2451 19.4365C32.3584 18.7432 33.2178 17.7861 33.8232 16.5654C34.4287 15.3447 34.7314 13.9287 34.7314 12.3174V10.3252C34.7314 9.09473 34.5557 7.98145 34.2041 6.98535C33.8623 5.98926 33.3691 5.13965 32.7246 4.43652C32.0801 3.72363 31.3086 3.17676 30.4102 2.7959C29.5215 2.41504 28.5254 2.22461 27.4219 2.22461H22.3682V0.671875H27.4219C28.75 0.671875 29.9658 0.901367 31.0693 1.36035C32.1826 1.80957 33.1445 2.46387 33.9551 3.32324C34.7754 4.17285 35.4053 5.19336 35.8447 6.38477C36.2939 7.57617 36.5186 8.9043 36.5186 10.3691V12.3174C36.5186 13.7822 36.2939 15.1104 35.8447 16.3018C35.4053 17.4932 34.7754 18.5137 33.9551 19.3633C33.1348 20.2129 32.1631 20.8672 31.04 21.3262C29.917 21.7754 28.667 22 27.29 22ZM23.2617 0.671875V22H21.46V0.671875H23.2617ZM41.0742 0.671875H48.0029C49.4775 0.671875 50.7568 0.911133 51.8408 1.38965C52.9248 1.86816 53.7598 2.57617 54.3457 3.51367C54.9414 4.44141 55.2393 5.58398 55.2393 6.94141C55.2393 7.94727 55.0244 8.86035 54.5947 9.68066C54.1748 10.501 53.5938 11.1895 52.8516 11.7461C52.1094 12.293 51.25 12.6689 50.2734 12.874L49.6436 13.1084H42.2461L42.2168 11.5703H48.4131C49.5264 11.5703 50.4541 11.3555 51.1963 10.9258C51.9385 10.4961 52.4951 9.92969 52.8662 9.22656C53.2471 8.51367 53.4375 7.75195 53.4375 6.94141C53.4375 5.97461 53.2275 5.13965 52.8076 4.43652C52.3975 3.72363 51.7871 3.17676 50.9766 2.7959C50.166 2.41504 49.1748 2.22461 48.0029 2.22461H42.876V22H41.0742V0.671875ZM54.2432 22L48.7207 12.4639L50.6543 12.4492L56.1621 21.8096V22H54.2432ZM62.3877 0.671875V22H60.5859V0.671875H62.3877ZM75.4541 1.94629L68.0713 22H66.1963L74.2529 0.671875H75.5566L75.4541 1.94629ZM82.1631 22L74.7656 1.94629L74.6631 0.671875H75.9668L84.0381 22H82.1631ZM80.8447 14.4707V16.0234H69.5215V14.4707H80.8447ZM94.2041 1.94629L86.8213 22H84.9463L93.0029 0.671875H94.3066L94.2041 1.94629ZM100.913 22L93.5156 1.94629L93.4131 0.671875H94.7168L102.788 22H100.913ZM99.5947 14.4707V16.0234H88.2715V14.4707H99.5947ZM121.831 0.671875V22H120.015L107.754 3.77734V22H105.952V0.671875H107.754L120.044 18.8945V0.671875H121.831Z" fill="black"/>
</svg>
